<?xml version="1.0" encoding="UTF-8" standalone="no"?>
<!DOCTYPE svg PUBLIC "-//W3C//DTD SVG 1.1//EN"
 "http://www.w3.org/Graphics/SVG/1.1/DTD/svg11.dtd">
<!-- Generated by graphviz version 2.38.0 (20140413.2041)
 -->
<!-- Title: G Pages: 1 -->
<svg width="456pt" height="2369pt"
 viewBox="0.00 0.00 456.00 2369.00" xmlns="http://www.w3.org/2000/svg" xmlns:xlink="http://www.w3.org/1999/xlink">
<g id="graph0" class="graph" transform="scale(1 1) rotate(0) translate(4 2365)">
<title>G</title>
<polygon fill="white" stroke="none" points="-4,4 -4,-2365 452,-2365 452,4 -4,4"/>
<!-- 2102619330152 -->
<g id="node1" class="node"><title>2102619330152</title>
<polygon fill="none" stroke="black" points="66.5,-2241.5 66.5,-2287.5 381.5,-2287.5 381.5,-2241.5 66.5,-2241.5"/>
<text text-anchor="middle" x="130" y="-2260.8" font-family="Times New Roman,serif" font-size="14.00">conv2d_1: Conv2D</text>
<polyline fill="none" stroke="black" points="193.5,-2241.5 193.5,-2287.5 "/>
<text text-anchor="middle" x="221.5" y="-2272.3" font-family="Times New Roman,serif" font-size="14.00">input:</text>
<polyline fill="none" stroke="black" points="193.5,-2264.5 249.5,-2264.5 "/>
<text text-anchor="middle" x="221.5" y="-2249.3" font-family="Times New Roman,serif" font-size="14.00">output:</text>
<polyline fill="none" stroke="black" points="249.5,-2241.5 249.5,-2287.5 "/>
<text text-anchor="middle" x="315.5" y="-2272.3" font-family="Times New Roman,serif" font-size="14.00">(None, 256, 256, 3)</text>
<polyline fill="none" stroke="black" points="249.5,-2264.5 381.5,-2264.5 "/>
<text text-anchor="middle" x="315.5" y="-2249.3" font-family="Times New Roman,serif" font-size="14.00">(None, 256, 256, 32)</text>
</g>
<!-- 2102619329872 -->
<g id="node2" class="node"><title>2102619329872</title>
<polygon fill="none" stroke="black" points="56,-2158.5 56,-2204.5 392,-2204.5 392,-2158.5 56,-2158.5"/>
<text text-anchor="middle" x="130" y="-2177.8" font-family="Times New Roman,serif" font-size="14.00">activation_1: Activation</text>
<polyline fill="none" stroke="black" points="204,-2158.5 204,-2204.5 "/>
<text text-anchor="middle" x="232" y="-2189.3" font-family="Times New Roman,serif" font-size="14.00">input:</text>
<polyline fill="none" stroke="black" points="204,-2181.5 260,-2181.5 "/>
<text text-anchor="middle" x="232" y="-2166.3" font-family="Times New Roman,serif" font-size="14.00">output:</text>
<polyline fill="none" stroke="black" points="260,-2158.5 260,-2204.5 "/>
<text text-anchor="middle" x="326" y="-2189.3" font-family="Times New Roman,serif" font-size="14.00">(None, 256, 256, 32)</text>
<polyline fill="none" stroke="black" points="260,-2181.5 392,-2181.5 "/>
<text text-anchor="middle" x="326" y="-2166.3" font-family="Times New Roman,serif" font-size="14.00">(None, 256, 256, 32)</text>
</g>
<!-- 2102619330152&#45;&gt;2102619329872 -->
<g id="edge2" class="edge"><title>2102619330152&#45;&gt;2102619329872</title>
<path fill="none" stroke="black" d="M224,-2241.37C224,-2233.15 224,-2223.66 224,-2214.73"/>
<polygon fill="black" stroke="black" points="227.5,-2214.61 224,-2204.61 220.5,-2214.61 227.5,-2214.61"/>
</g>
<!-- 2102619330824 -->
<g id="node3" class="node"><title>2102619330824</title>
<polygon fill="none" stroke="black" points="0,-2075.5 0,-2121.5 448,-2121.5 448,-2075.5 0,-2075.5"/>
<text text-anchor="middle" x="130" y="-2094.8" font-family="Times New Roman,serif" font-size="14.00">batch_normalization_1: BatchNormalization</text>
<polyline fill="none" stroke="black" points="260,-2075.5 260,-2121.5 "/>
<text text-anchor="middle" x="288" y="-2106.3" font-family="Times New Roman,serif" font-size="14.00">input:</text>
<polyline fill="none" stroke="black" points="260,-2098.5 316,-2098.5 "/>
<text text-anchor="middle" x="288" y="-2083.3" font-family="Times New Roman,serif" font-size="14.00">output:</text>
<polyline fill="none" stroke="black" points="316,-2075.5 316,-2121.5 "/>
<text text-anchor="middle" x="382" y="-2106.3" font-family="Times New Roman,serif" font-size="14.00">(None, 256, 256, 32)</text>
<polyline fill="none" stroke="black" points="316,-2098.5 448,-2098.5 "/>
<text text-anchor="middle" x="382" y="-2083.3" font-family="Times New Roman,serif" font-size="14.00">(None, 256, 256, 32)</text>
</g>
<!-- 2102619329872&#45;&gt;2102619330824 -->
<g id="edge3" class="edge"><title>2102619329872&#45;&gt;2102619330824</title>
<path fill="none" stroke="black" d="M224,-2158.37C224,-2150.15 224,-2140.66 224,-2131.73"/>
<polygon fill="black" stroke="black" points="227.5,-2131.61 224,-2121.61 220.5,-2131.61 227.5,-2131.61"/>
</g>
<!-- 2102619331048 -->
<g id="node4" class="node"><title>2102619331048</title>
<polygon fill="none" stroke="black" points="25.5,-1992.5 25.5,-2038.5 422.5,-2038.5 422.5,-1992.5 25.5,-1992.5"/>
<text text-anchor="middle" x="130" y="-2011.8" font-family="Times New Roman,serif" font-size="14.00">max_pooling2d_1: MaxPooling2D</text>
<polyline fill="none" stroke="black" points="234.5,-1992.5 234.5,-2038.5 "/>
<text text-anchor="middle" x="262.5" y="-2023.3" font-family="Times New Roman,serif" font-size="14.00">input:</text>
<polyline fill="none" stroke="black" points="234.5,-2015.5 290.5,-2015.5 "/>
<text text-anchor="middle" x="262.5" y="-2000.3" font-family="Times New Roman,serif" font-size="14.00">output:</text>
<polyline fill="none" stroke="black" points="290.5,-1992.5 290.5,-2038.5 "/>
<text text-anchor="middle" x="356.5" y="-2023.3" font-family="Times New Roman,serif" font-size="14.00">(None, 256, 256, 32)</text>
<polyline fill="none" stroke="black" points="290.5,-2015.5 422.5,-2015.5 "/>
<text text-anchor="middle" x="356.5" y="-2000.3" font-family="Times New Roman,serif" font-size="14.00">(None, 85, 85, 32)</text>
</g>
<!-- 2102619330824&#45;&gt;2102619331048 -->
<g id="edge4" class="edge"><title>2102619330824&#45;&gt;2102619331048</title>
<path fill="none" stroke="black" d="M224,-2075.37C224,-2067.15 224,-2057.66 224,-2048.73"/>
<polygon fill="black" stroke="black" points="227.5,-2048.61 224,-2038.61 220.5,-2048.61 227.5,-2048.61"/>
</g>
<!-- 2102619330992 -->
<g id="node5" class="node"><title>2102619330992</title>
<polygon fill="none" stroke="black" points="71.5,-1909.5 71.5,-1955.5 376.5,-1955.5 376.5,-1909.5 71.5,-1909.5"/>
<text text-anchor="middle" x="136.5" y="-1928.8" font-family="Times New Roman,serif" font-size="14.00">dropout_1: Dropout</text>
<polyline fill="none" stroke="black" points="201.5,-1909.5 201.5,-1955.5 "/>
<text text-anchor="middle" x="229.5" y="-1940.3" font-family="Times New Roman,serif" font-size="14.00">input:</text>
<polyline fill="none" stroke="black" points="201.5,-1932.5 257.5,-1932.5 "/>
<text text-anchor="middle" x="229.5" y="-1917.3" font-family="Times New Roman,serif" font-size="14.00">output:</text>
<polyline fill="none" stroke="black" points="257.5,-1909.5 257.5,-1955.5 "/>
<text text-anchor="middle" x="317" y="-1940.3" font-family="Times New Roman,serif" font-size="14.00">(None, 85, 85, 32)</text>
<polyline fill="none" stroke="black" points="257.5,-1932.5 376.5,-1932.5 "/>
<text text-anchor="middle" x="317" y="-1917.3" font-family="Times New Roman,serif" font-size="14.00">(None, 85, 85, 32)</text>
</g>
<!-- 2102619331048&#45;&gt;2102619330992 -->
<g id="edge5" class="edge"><title>2102619331048&#45;&gt;2102619330992</title>
<path fill="none" stroke="black" d="M224,-1992.37C224,-1984.15 224,-1974.66 224,-1965.73"/>
<polygon fill="black" stroke="black" points="227.5,-1965.61 224,-1955.61 220.5,-1965.61 227.5,-1965.61"/>
</g>
<!-- 2102619527264 -->
<g id="node6" class="node"><title>2102619527264</title>
<polygon fill="none" stroke="black" points="73,-1826.5 73,-1872.5 375,-1872.5 375,-1826.5 73,-1826.5"/>
<text text-anchor="middle" x="136.5" y="-1845.8" font-family="Times New Roman,serif" font-size="14.00">conv2d_2: Conv2D</text>
<polyline fill="none" stroke="black" points="200,-1826.5 200,-1872.5 "/>
<text text-anchor="middle" x="228" y="-1857.3" font-family="Times New Roman,serif" font-size="14.00">input:</text>
<polyline fill="none" stroke="black" points="200,-1849.5 256,-1849.5 "/>
<text text-anchor="middle" x="228" y="-1834.3" font-family="Times New Roman,serif" font-size="14.00">output:</text>
<polyline fill="none" stroke="black" points="256,-1826.5 256,-1872.5 "/>
<text text-anchor="middle" x="315.5" y="-1857.3" font-family="Times New Roman,serif" font-size="14.00">(None, 85, 85, 32)</text>
<polyline fill="none" stroke="black" points="256,-1849.5 375,-1849.5 "/>
<text text-anchor="middle" x="315.5" y="-1834.3" font-family="Times New Roman,serif" font-size="14.00">(None, 85, 85, 64)</text>
</g>
<!-- 2102619330992&#45;&gt;2102619527264 -->
<g id="edge6" class="edge"><title>2102619330992&#45;&gt;2102619527264</title>
<path fill="none" stroke="black" d="M224,-1909.37C224,-1901.15 224,-1891.66 224,-1882.73"/>
<polygon fill="black" stroke="black" points="227.5,-1882.61 224,-1872.61 220.5,-1882.61 227.5,-1882.61"/>
</g>
<!-- 2102619331104 -->
<g id="node7" class="node"><title>2102619331104</title>
<polygon fill="none" stroke="black" points="62.5,-1743.5 62.5,-1789.5 385.5,-1789.5 385.5,-1743.5 62.5,-1743.5"/>
<text text-anchor="middle" x="136.5" y="-1762.8" font-family="Times New Roman,serif" font-size="14.00">activation_2: Activation</text>
<polyline fill="none" stroke="black" points="210.5,-1743.5 210.5,-1789.5 "/>
<text text-anchor="middle" x="238.5" y="-1774.3" font-family="Times New Roman,serif" font-size="14.00">input:</text>
<polyline fill="none" stroke="black" points="210.5,-1766.5 266.5,-1766.5 "/>
<text text-anchor="middle" x="238.5" y="-1751.3" font-family="Times New Roman,serif" font-size="14.00">output:</text>
<polyline fill="none" stroke="black" points="266.5,-1743.5 266.5,-1789.5 "/>
<text text-anchor="middle" x="326" y="-1774.3" font-family="Times New Roman,serif" font-size="14.00">(None, 85, 85, 64)</text>
<polyline fill="none" stroke="black" points="266.5,-1766.5 385.5,-1766.5 "/>
<text text-anchor="middle" x="326" y="-1751.3" font-family="Times New Roman,serif" font-size="14.00">(None, 85, 85, 64)</text>
</g>
<!-- 2102619527264&#45;&gt;2102619331104 -->
<g id="edge7" class="edge"><title>2102619527264&#45;&gt;2102619331104</title>
<path fill="none" stroke="black" d="M224,-1826.37C224,-1818.15 224,-1808.66 224,-1799.73"/>
<polygon fill="black" stroke="black" points="227.5,-1799.61 224,-1789.61 220.5,-1799.61 227.5,-1799.61"/>
</g>
<!-- 2102620581672 -->
<g id="node8" class="node"><title>2102620581672</title>
<polygon fill="none" stroke="black" points="6.5,-1660.5 6.5,-1706.5 441.5,-1706.5 441.5,-1660.5 6.5,-1660.5"/>
<text text-anchor="middle" x="136.5" y="-1679.8" font-family="Times New Roman,serif" font-size="14.00">batch_normalization_2: BatchNormalization</text>
<polyline fill="none" stroke="black" points="266.5,-1660.5 266.5,-1706.5 "/>
<text text-anchor="middle" x="294.5" y="-1691.3" font-family="Times New Roman,serif" font-size="14.00">input:</text>
<polyline fill="none" stroke="black" points="266.5,-1683.5 322.5,-1683.5 "/>
<text text-anchor="middle" x="294.5" y="-1668.3" font-family="Times New Roman,serif" font-size="14.00">output:</text>
<polyline fill="none" stroke="black" points="322.5,-1660.5 322.5,-1706.5 "/>
<text text-anchor="middle" x="382" y="-1691.3" font-family="Times New Roman,serif" font-size="14.00">(None, 85, 85, 64)</text>
<polyline fill="none" stroke="black" points="322.5,-1683.5 441.5,-1683.5 "/>
<text text-anchor="middle" x="382" y="-1668.3" font-family="Times New Roman,serif" font-size="14.00">(None, 85, 85, 64)</text>
</g>
<!-- 2102619331104&#45;&gt;2102620581672 -->
<g id="edge8" class="edge"><title>2102619331104&#45;&gt;2102620581672</title>
<path fill="none" stroke="black" d="M224,-1743.37C224,-1735.15 224,-1725.66 224,-1716.73"/>
<polygon fill="black" stroke="black" points="227.5,-1716.61 224,-1706.61 220.5,-1716.61 227.5,-1716.61"/>
</g>
<!-- 2102620808304 -->
<g id="node9" class="node"><title>2102620808304</title>
<polygon fill="none" stroke="black" points="73,-1577.5 73,-1623.5 375,-1623.5 375,-1577.5 73,-1577.5"/>
<text text-anchor="middle" x="136.5" y="-1596.8" font-family="Times New Roman,serif" font-size="14.00">conv2d_3: Conv2D</text>
<polyline fill="none" stroke="black" points="200,-1577.5 200,-1623.5 "/>
<text text-anchor="middle" x="228" y="-1608.3" font-family="Times New Roman,serif" font-size="14.00">input:</text>
<polyline fill="none" stroke="black" points="200,-1600.5 256,-1600.5 "/>
<text text-anchor="middle" x="228" y="-1585.3" font-family="Times New Roman,serif" font-size="14.00">output:</text>
<polyline fill="none" stroke="black" points="256,-1577.5 256,-1623.5 "/>
<text text-anchor="middle" x="315.5" y="-1608.3" font-family="Times New Roman,serif" font-size="14.00">(None, 85, 85, 64)</text>
<polyline fill="none" stroke="black" points="256,-1600.5 375,-1600.5 "/>
<text text-anchor="middle" x="315.5" y="-1585.3" font-family="Times New Roman,serif" font-size="14.00">(None, 85, 85, 64)</text>
</g>
<!-- 2102620581672&#45;&gt;2102620808304 -->
<g id="edge9" class="edge"><title>2102620581672&#45;&gt;2102620808304</title>
<path fill="none" stroke="black" d="M224,-1660.37C224,-1652.15 224,-1642.66 224,-1633.73"/>
<polygon fill="black" stroke="black" points="227.5,-1633.61 224,-1623.61 220.5,-1633.61 227.5,-1633.61"/>
</g>
<!-- 2102620807744 -->
<g id="node10" class="node"><title>2102620807744</title>
<polygon fill="none" stroke="black" points="62.5,-1494.5 62.5,-1540.5 385.5,-1540.5 385.5,-1494.5 62.5,-1494.5"/>
<text text-anchor="middle" x="136.5" y="-1513.8" font-family="Times New Roman,serif" font-size="14.00">activation_3: Activation</text>
<polyline fill="none" stroke="black" points="210.5,-1494.5 210.5,-1540.5 "/>
<text text-anchor="middle" x="238.5" y="-1525.3" font-family="Times New Roman,serif" font-size="14.00">input:</text>
<polyline fill="none" stroke="black" points="210.5,-1517.5 266.5,-1517.5 "/>
<text text-anchor="middle" x="238.5" y="-1502.3" font-family="Times New Roman,serif" font-size="14.00">output:</text>
<polyline fill="none" stroke="black" points="266.5,-1494.5 266.5,-1540.5 "/>
<text text-anchor="middle" x="326" y="-1525.3" font-family="Times New Roman,serif" font-size="14.00">(None, 85, 85, 64)</text>
<polyline fill="none" stroke="black" points="266.5,-1517.5 385.5,-1517.5 "/>
<text text-anchor="middle" x="326" y="-1502.3" font-family="Times New Roman,serif" font-size="14.00">(None, 85, 85, 64)</text>
</g>
<!-- 2102620808304&#45;&gt;2102620807744 -->
<g id="edge10" class="edge"><title>2102620808304&#45;&gt;2102620807744</title>
<path fill="none" stroke="black" d="M224,-1577.37C224,-1569.15 224,-1559.66 224,-1550.73"/>
<polygon fill="black" stroke="black" points="227.5,-1550.61 224,-1540.61 220.5,-1550.61 227.5,-1550.61"/>
</g>
<!-- 2102621582056 -->
<g id="node11" class="node"><title>2102621582056</title>
<polygon fill="none" stroke="black" points="6.5,-1411.5 6.5,-1457.5 441.5,-1457.5 441.5,-1411.5 6.5,-1411.5"/>
<text text-anchor="middle" x="136.5" y="-1430.8" font-family="Times New Roman,serif" font-size="14.00">batch_normalization_3: BatchNormalization</text>
<polyline fill="none" stroke="black" points="266.5,-1411.5 266.5,-1457.5 "/>
<text text-anchor="middle" x="294.5" y="-1442.3" font-family="Times New Roman,serif" font-size="14.00">input:</text>
<polyline fill="none" stroke="black" points="266.5,-1434.5 322.5,-1434.5 "/>
<text text-anchor="middle" x="294.5" y="-1419.3" font-family="Times New Roman,serif" font-size="14.00">output:</text>
<polyline fill="none" stroke="black" points="322.5,-1411.5 322.5,-1457.5 "/>
<text text-anchor="middle" x="382" y="-1442.3" font-family="Times New Roman,serif" font-size="14.00">(None, 85, 85, 64)</text>
<polyline fill="none" stroke="black" points="322.5,-1434.5 441.5,-1434.5 "/>
<text text-anchor="middle" x="382" y="-1419.3" font-family="Times New Roman,serif" font-size="14.00">(None, 85, 85, 64)</text>
</g>
<!-- 2102620807744&#45;&gt;2102621582056 -->
<g id="edge11" class="edge"><title>2102620807744&#45;&gt;2102621582056</title>
<path fill="none" stroke="black" d="M224,-1494.37C224,-1486.15 224,-1476.66 224,-1467.73"/>
<polygon fill="black" stroke="black" points="227.5,-1467.61 224,-1457.61 220.5,-1467.61 227.5,-1467.61"/>
</g>
<!-- 2102621271544 -->
<g id="node12" class="node"><title>2102621271544</title>
<polygon fill="none" stroke="black" points="32,-1328.5 32,-1374.5 416,-1374.5 416,-1328.5 32,-1328.5"/>
<text text-anchor="middle" x="136.5" y="-1347.8" font-family="Times New Roman,serif" font-size="14.00">max_pooling2d_2: MaxPooling2D</text>
<polyline fill="none" stroke="black" points="241,-1328.5 241,-1374.5 "/>
<text text-anchor="middle" x="269" y="-1359.3" font-family="Times New Roman,serif" font-size="14.00">input:</text>
<polyline fill="none" stroke="black" points="241,-1351.5 297,-1351.5 "/>
<text text-anchor="middle" x="269" y="-1336.3" font-family="Times New Roman,serif" font-size="14.00">output:</text>
<polyline fill="none" stroke="black" points="297,-1328.5 297,-1374.5 "/>
<text text-anchor="middle" x="356.5" y="-1359.3" font-family="Times New Roman,serif" font-size="14.00">(None, 85, 85, 64)</text>
<polyline fill="none" stroke="black" points="297,-1351.5 416,-1351.5 "/>
<text text-anchor="middle" x="356.5" y="-1336.3" font-family="Times New Roman,serif" font-size="14.00">(None, 42, 42, 64)</text>
</g>
<!-- 2102621582056&#45;&gt;2102621271544 -->
<g id="edge12" class="edge"><title>2102621582056&#45;&gt;2102621271544</title>
<path fill="none" stroke="black" d="M224,-1411.37C224,-1403.15 224,-1393.66 224,-1384.73"/>
<polygon fill="black" stroke="black" points="227.5,-1384.61 224,-1374.61 220.5,-1384.61 227.5,-1384.61"/>
</g>
<!-- 2102621273560 -->
<g id="node13" class="node"><title>2102621273560</title>
<polygon fill="none" stroke="black" points="71.5,-1245.5 71.5,-1291.5 376.5,-1291.5 376.5,-1245.5 71.5,-1245.5"/>
<text text-anchor="middle" x="136.5" y="-1264.8" font-family="Times New Roman,serif" font-size="14.00">dropout_2: Dropout</text>
<polyline fill="none" stroke="black" points="201.5,-1245.5 201.5,-1291.5 "/>
<text text-anchor="middle" x="229.5" y="-1276.3" font-family="Times New Roman,serif" font-size="14.00">input:</text>
<polyline fill="none" stroke="black" points="201.5,-1268.5 257.5,-1268.5 "/>
<text text-anchor="middle" x="229.5" y="-1253.3" font-family="Times New Roman,serif" font-size="14.00">output:</text>
<polyline fill="none" stroke="black" points="257.5,-1245.5 257.5,-1291.5 "/>
<text text-anchor="middle" x="317" y="-1276.3" font-family="Times New Roman,serif" font-size="14.00">(None, 42, 42, 64)</text>
<polyline fill="none" stroke="black" points="257.5,-1268.5 376.5,-1268.5 "/>
<text text-anchor="middle" x="317" y="-1253.3" font-family="Times New Roman,serif" font-size="14.00">(None, 42, 42, 64)</text>
</g>
<!-- 2102621271544&#45;&gt;2102621273560 -->
<g id="edge13" class="edge"><title>2102621271544&#45;&gt;2102621273560</title>
<path fill="none" stroke="black" d="M224,-1328.37C224,-1320.15 224,-1310.66 224,-1301.73"/>
<polygon fill="black" stroke="black" points="227.5,-1301.61 224,-1291.61 220.5,-1301.61 227.5,-1301.61"/>
</g>
<!-- 2102622366016 -->
<g id="node14" class="node"><title>2102622366016</title>
<polygon fill="none" stroke="black" points="70,-1162.5 70,-1208.5 378,-1208.5 378,-1162.5 70,-1162.5"/>
<text text-anchor="middle" x="133.5" y="-1181.8" font-family="Times New Roman,serif" font-size="14.00">conv2d_4: Conv2D</text>
<polyline fill="none" stroke="black" points="197,-1162.5 197,-1208.5 "/>
<text text-anchor="middle" x="225" y="-1193.3" font-family="Times New Roman,serif" font-size="14.00">input:</text>
<polyline fill="none" stroke="black" points="197,-1185.5 253,-1185.5 "/>
<text text-anchor="middle" x="225" y="-1170.3" font-family="Times New Roman,serif" font-size="14.00">output:</text>
<polyline fill="none" stroke="black" points="253,-1162.5 253,-1208.5 "/>
<text text-anchor="middle" x="315.5" y="-1193.3" font-family="Times New Roman,serif" font-size="14.00">(None, 42, 42, 64)</text>
<polyline fill="none" stroke="black" points="253,-1185.5 378,-1185.5 "/>
<text text-anchor="middle" x="315.5" y="-1170.3" font-family="Times New Roman,serif" font-size="14.00">(None, 42, 42, 128)</text>
</g>
<!-- 2102621273560&#45;&gt;2102622366016 -->
<g id="edge14" class="edge"><title>2102621273560&#45;&gt;2102622366016</title>
<path fill="none" stroke="black" d="M224,-1245.37C224,-1237.15 224,-1227.66 224,-1218.73"/>
<polygon fill="black" stroke="black" points="227.5,-1218.61 224,-1208.61 220.5,-1218.61 227.5,-1218.61"/>
</g>
<!-- 2102622223384 -->
<g id="node15" class="node"><title>2102622223384</title>
<polygon fill="none" stroke="black" points="59.5,-1079.5 59.5,-1125.5 388.5,-1125.5 388.5,-1079.5 59.5,-1079.5"/>
<text text-anchor="middle" x="133.5" y="-1098.8" font-family="Times New Roman,serif" font-size="14.00">activation_4: Activation</text>
<polyline fill="none" stroke="black" points="207.5,-1079.5 207.5,-1125.5 "/>
<text text-anchor="middle" x="235.5" y="-1110.3" font-family="Times New Roman,serif" font-size="14.00">input:</text>
<polyline fill="none" stroke="black" points="207.5,-1102.5 263.5,-1102.5 "/>
<text text-anchor="middle" x="235.5" y="-1087.3" font-family="Times New Roman,serif" font-size="14.00">output:</text>
<polyline fill="none" stroke="black" points="263.5,-1079.5 263.5,-1125.5 "/>
<text text-anchor="middle" x="326" y="-1110.3" font-family="Times New Roman,serif" font-size="14.00">(None, 42, 42, 128)</text>
<polyline fill="none" stroke="black" points="263.5,-1102.5 388.5,-1102.5 "/>
<text text-anchor="middle" x="326" y="-1087.3" font-family="Times New Roman,serif" font-size="14.00">(None, 42, 42, 128)</text>
</g>
<!-- 2102622366016&#45;&gt;2102622223384 -->
<g id="edge15" class="edge"><title>2102622366016&#45;&gt;2102622223384</title>
<path fill="none" stroke="black" d="M224,-1162.37C224,-1154.15 224,-1144.66 224,-1135.73"/>
<polygon fill="black" stroke="black" points="227.5,-1135.61 224,-1125.61 220.5,-1135.61 227.5,-1135.61"/>
</g>
<!-- 2102623132248 -->
<g id="node16" class="node"><title>2102623132248</title>
<polygon fill="none" stroke="black" points="3.5,-996.5 3.5,-1042.5 444.5,-1042.5 444.5,-996.5 3.5,-996.5"/>
<text text-anchor="middle" x="133.5" y="-1015.8" font-family="Times New Roman,serif" font-size="14.00">batch_normalization_4: BatchNormalization</text>
<polyline fill="none" stroke="black" points="263.5,-996.5 263.5,-1042.5 "/>
<text text-anchor="middle" x="291.5" y="-1027.3" font-family="Times New Roman,serif" font-size="14.00">input:</text>
<polyline fill="none" stroke="black" points="263.5,-1019.5 319.5,-1019.5 "/>
<text text-anchor="middle" x="291.5" y="-1004.3" font-family="Times New Roman,serif" font-size="14.00">output:</text>
<polyline fill="none" stroke="black" points="319.5,-996.5 319.5,-1042.5 "/>
<text text-anchor="middle" x="382" y="-1027.3" font-family="Times New Roman,serif" font-size="14.00">(None, 42, 42, 128)</text>
<polyline fill="none" stroke="black" points="319.5,-1019.5 444.5,-1019.5 "/>
<text text-anchor="middle" x="382" y="-1004.3" font-family="Times New Roman,serif" font-size="14.00">(None, 42, 42, 128)</text>
</g>
<!-- 2102622223384&#45;&gt;2102623132248 -->
<g id="edge16" class="edge"><title>2102622223384&#45;&gt;2102623132248</title>
<path fill="none" stroke="black" d="M224,-1079.37C224,-1071.15 224,-1061.66 224,-1052.73"/>
<polygon fill="black" stroke="black" points="227.5,-1052.61 224,-1042.61 220.5,-1052.61 227.5,-1052.61"/>
</g>
<!-- 2102623302824 -->
<g id="node17" class="node"><title>2102623302824</title>
<polygon fill="none" stroke="black" points="70,-913.5 70,-959.5 378,-959.5 378,-913.5 70,-913.5"/>
<text text-anchor="middle" x="133.5" y="-932.8" font-family="Times New Roman,serif" font-size="14.00">conv2d_5: Conv2D</text>
<polyline fill="none" stroke="black" points="197,-913.5 197,-959.5 "/>
<text text-anchor="middle" x="225" y="-944.3" font-family="Times New Roman,serif" font-size="14.00">input:</text>
<polyline fill="none" stroke="black" points="197,-936.5 253,-936.5 "/>
<text text-anchor="middle" x="225" y="-921.3" font-family="Times New Roman,serif" font-size="14.00">output:</text>
<polyline fill="none" stroke="black" points="253,-913.5 253,-959.5 "/>
<text text-anchor="middle" x="315.5" y="-944.3" font-family="Times New Roman,serif" font-size="14.00">(None, 42, 42, 128)</text>
<polyline fill="none" stroke="black" points="253,-936.5 378,-936.5 "/>
<text text-anchor="middle" x="315.5" y="-921.3" font-family="Times New Roman,serif" font-size="14.00">(None, 42, 42, 128)</text>
</g>
<!-- 2102623132248&#45;&gt;2102623302824 -->
<g id="edge17" class="edge"><title>2102623132248&#45;&gt;2102623302824</title>
<path fill="none" stroke="black" d="M224,-996.366C224,-988.152 224,-978.658 224,-969.725"/>
<polygon fill="black" stroke="black" points="227.5,-969.607 224,-959.607 220.5,-969.607 227.5,-969.607"/>
</g>
<!-- 2102623303384 -->
<g id="node18" class="node"><title>2102623303384</title>
<polygon fill="none" stroke="black" points="59.5,-830.5 59.5,-876.5 388.5,-876.5 388.5,-830.5 59.5,-830.5"/>
<text text-anchor="middle" x="133.5" y="-849.8" font-family="Times New Roman,serif" font-size="14.00">activation_5: Activation</text>
<polyline fill="none" stroke="black" points="207.5,-830.5 207.5,-876.5 "/>
<text text-anchor="middle" x="235.5" y="-861.3" font-family="Times New Roman,serif" font-size="14.00">input:</text>
<polyline fill="none" stroke="black" points="207.5,-853.5 263.5,-853.5 "/>
<text text-anchor="middle" x="235.5" y="-838.3" font-family="Times New Roman,serif" font-size="14.00">output:</text>
<polyline fill="none" stroke="black" points="263.5,-830.5 263.5,-876.5 "/>
<text text-anchor="middle" x="326" y="-861.3" font-family="Times New Roman,serif" font-size="14.00">(None, 42, 42, 128)</text>
<polyline fill="none" stroke="black" points="263.5,-853.5 388.5,-853.5 "/>
<text text-anchor="middle" x="326" y="-838.3" font-family="Times New Roman,serif" font-size="14.00">(None, 42, 42, 128)</text>
</g>
<!-- 2102623302824&#45;&gt;2102623303384 -->
<g id="edge18" class="edge"><title>2102623302824&#45;&gt;2102623303384</title>
<path fill="none" stroke="black" d="M224,-913.366C224,-905.152 224,-895.658 224,-886.725"/>
<polygon fill="black" stroke="black" points="227.5,-886.607 224,-876.607 220.5,-886.607 227.5,-886.607"/>
</g>
<!-- 2102624081512 -->
<g id="node19" class="node"><title>2102624081512</title>
<polygon fill="none" stroke="black" points="3.5,-747.5 3.5,-793.5 444.5,-793.5 444.5,-747.5 3.5,-747.5"/>
<text text-anchor="middle" x="133.5" y="-766.8" font-family="Times New Roman,serif" font-size="14.00">batch_normalization_5: BatchNormalization</text>
<polyline fill="none" stroke="black" points="263.5,-747.5 263.5,-793.5 "/>
<text text-anchor="middle" x="291.5" y="-778.3" font-family="Times New Roman,serif" font-size="14.00">input:</text>
<polyline fill="none" stroke="black" points="263.5,-770.5 319.5,-770.5 "/>
<text text-anchor="middle" x="291.5" y="-755.3" font-family="Times New Roman,serif" font-size="14.00">output:</text>
<polyline fill="none" stroke="black" points="319.5,-747.5 319.5,-793.5 "/>
<text text-anchor="middle" x="382" y="-778.3" font-family="Times New Roman,serif" font-size="14.00">(None, 42, 42, 128)</text>
<polyline fill="none" stroke="black" points="319.5,-770.5 444.5,-770.5 "/>
<text text-anchor="middle" x="382" y="-755.3" font-family="Times New Roman,serif" font-size="14.00">(None, 42, 42, 128)</text>
</g>
<!-- 2102623303384&#45;&gt;2102624081512 -->
<g id="edge19" class="edge"><title>2102623303384&#45;&gt;2102624081512</title>
<path fill="none" stroke="black" d="M224,-830.366C224,-822.152 224,-812.658 224,-803.725"/>
<polygon fill="black" stroke="black" points="227.5,-803.607 224,-793.607 220.5,-803.607 227.5,-803.607"/>
</g>
<!-- 2102623782560 -->
<g id="node20" class="node"><title>2102623782560</title>
<polygon fill="none" stroke="black" points="29,-664.5 29,-710.5 419,-710.5 419,-664.5 29,-664.5"/>
<text text-anchor="middle" x="133.5" y="-683.8" font-family="Times New Roman,serif" font-size="14.00">max_pooling2d_3: MaxPooling2D</text>
<polyline fill="none" stroke="black" points="238,-664.5 238,-710.5 "/>
<text text-anchor="middle" x="266" y="-695.3" font-family="Times New Roman,serif" font-size="14.00">input:</text>
<polyline fill="none" stroke="black" points="238,-687.5 294,-687.5 "/>
<text text-anchor="middle" x="266" y="-672.3" font-family="Times New Roman,serif" font-size="14.00">output:</text>
<polyline fill="none" stroke="black" points="294,-664.5 294,-710.5 "/>
<text text-anchor="middle" x="356.5" y="-695.3" font-family="Times New Roman,serif" font-size="14.00">(None, 42, 42, 128)</text>
<polyline fill="none" stroke="black" points="294,-687.5 419,-687.5 "/>
<text text-anchor="middle" x="356.5" y="-672.3" font-family="Times New Roman,serif" font-size="14.00">(None, 21, 21, 128)</text>
</g>
<!-- 2102624081512&#45;&gt;2102623782560 -->
<g id="edge20" class="edge"><title>2102624081512&#45;&gt;2102623782560</title>
<path fill="none" stroke="black" d="M224,-747.366C224,-739.152 224,-729.658 224,-720.725"/>
<polygon fill="black" stroke="black" points="227.5,-720.607 224,-710.607 220.5,-720.607 227.5,-720.607"/>
</g>
<!-- 2102623783232 -->
<g id="node21" class="node"><title>2102623783232</title>
<polygon fill="none" stroke="black" points="68.5,-581.5 68.5,-627.5 379.5,-627.5 379.5,-581.5 68.5,-581.5"/>
<text text-anchor="middle" x="133.5" y="-600.8" font-family="Times New Roman,serif" font-size="14.00">dropout_3: Dropout</text>
<polyline fill="none" stroke="black" points="198.5,-581.5 198.5,-627.5 "/>
<text text-anchor="middle" x="226.5" y="-612.3" font-family="Times New Roman,serif" font-size="14.00">input:</text>
<polyline fill="none" stroke="black" points="198.5,-604.5 254.5,-604.5 "/>
<text text-anchor="middle" x="226.5" y="-589.3" font-family="Times New Roman,serif" font-size="14.00">output:</text>
<polyline fill="none" stroke="black" points="254.5,-581.5 254.5,-627.5 "/>
<text text-anchor="middle" x="317" y="-612.3" font-family="Times New Roman,serif" font-size="14.00">(None, 21, 21, 128)</text>
<polyline fill="none" stroke="black" points="254.5,-604.5 379.5,-604.5 "/>
<text text-anchor="middle" x="317" y="-589.3" font-family="Times New Roman,serif" font-size="14.00">(None, 21, 21, 128)</text>
</g>
<!-- 2102623782560&#45;&gt;2102623783232 -->
<g id="edge21" class="edge"><title>2102623782560&#45;&gt;2102623783232</title>
<path fill="none" stroke="black" d="M224,-664.366C224,-656.152 224,-646.658 224,-637.725"/>
<polygon fill="black" stroke="black" points="227.5,-637.607 224,-627.607 220.5,-637.607 227.5,-637.607"/>
</g>
<!-- 2104998456344 -->
<g id="node22" class="node"><title>2104998456344</title>
<polygon fill="none" stroke="black" points="79,-498.5 79,-544.5 369,-544.5 369,-498.5 79,-498.5"/>
<text text-anchor="middle" x="133.5" y="-517.8" font-family="Times New Roman,serif" font-size="14.00">flatten_1: Flatten</text>
<polyline fill="none" stroke="black" points="188,-498.5 188,-544.5 "/>
<text text-anchor="middle" x="216" y="-529.3" font-family="Times New Roman,serif" font-size="14.00">input:</text>
<polyline fill="none" stroke="black" points="188,-521.5 244,-521.5 "/>
<text text-anchor="middle" x="216" y="-506.3" font-family="Times New Roman,serif" font-size="14.00">output:</text>
<polyline fill="none" stroke="black" points="244,-498.5 244,-544.5 "/>
<text text-anchor="middle" x="306.5" y="-529.3" font-family="Times New Roman,serif" font-size="14.00">(None, 21, 21, 128)</text>
<polyline fill="none" stroke="black" points="244,-521.5 369,-521.5 "/>
<text text-anchor="middle" x="306.5" y="-506.3" font-family="Times New Roman,serif" font-size="14.00">(None, 56448)</text>
</g>
<!-- 2102623783232&#45;&gt;2104998456344 -->
<g id="edge22" class="edge"><title>2102623783232&#45;&gt;2104998456344</title>
<path fill="none" stroke="black" d="M224,-581.366C224,-573.152 224,-563.658 224,-554.725"/>
<polygon fill="black" stroke="black" points="227.5,-554.607 224,-544.607 220.5,-554.607 227.5,-554.607"/>
</g>
<!-- 2102624670888 -->
<g id="node23" class="node"><title>2102624670888</title>
<polygon fill="none" stroke="black" points="95.5,-415.5 95.5,-461.5 352.5,-461.5 352.5,-415.5 95.5,-415.5"/>
<text text-anchor="middle" x="147.5" y="-434.8" font-family="Times New Roman,serif" font-size="14.00">dense_1: Dense</text>
<polyline fill="none" stroke="black" points="199.5,-415.5 199.5,-461.5 "/>
<text text-anchor="middle" x="227.5" y="-446.3" font-family="Times New Roman,serif" font-size="14.00">input:</text>
<polyline fill="none" stroke="black" points="199.5,-438.5 255.5,-438.5 "/>
<text text-anchor="middle" x="227.5" y="-423.3" font-family="Times New Roman,serif" font-size="14.00">output:</text>
<polyline fill="none" stroke="black" points="255.5,-415.5 255.5,-461.5 "/>
<text text-anchor="middle" x="304" y="-446.3" font-family="Times New Roman,serif" font-size="14.00">(None, 56448)</text>
<polyline fill="none" stroke="black" points="255.5,-438.5 352.5,-438.5 "/>
<text text-anchor="middle" x="304" y="-423.3" font-family="Times New Roman,serif" font-size="14.00">(None, 1024)</text>
</g>
<!-- 2104998456344&#45;&gt;2102624670888 -->
<g id="edge23" class="edge"><title>2104998456344&#45;&gt;2102624670888</title>
<path fill="none" stroke="black" d="M224,-498.366C224,-490.152 224,-480.658 224,-471.725"/>
<polygon fill="black" stroke="black" points="227.5,-471.607 224,-461.607 220.5,-471.607 227.5,-471.607"/>
</g>
<!-- 2104998597968 -->
<g id="node24" class="node"><title>2104998597968</title>
<polygon fill="none" stroke="black" points="77,-332.5 77,-378.5 371,-378.5 371,-332.5 77,-332.5"/>
<text text-anchor="middle" x="151" y="-351.8" font-family="Times New Roman,serif" font-size="14.00">activation_6: Activation</text>
<polyline fill="none" stroke="black" points="225,-332.5 225,-378.5 "/>
<text text-anchor="middle" x="253" y="-363.3" font-family="Times New Roman,serif" font-size="14.00">input:</text>
<polyline fill="none" stroke="black" points="225,-355.5 281,-355.5 "/>
<text text-anchor="middle" x="253" y="-340.3" font-family="Times New Roman,serif" font-size="14.00">output:</text>
<polyline fill="none" stroke="black" points="281,-332.5 281,-378.5 "/>
<text text-anchor="middle" x="326" y="-363.3" font-family="Times New Roman,serif" font-size="14.00">(None, 1024)</text>
<polyline fill="none" stroke="black" points="281,-355.5 371,-355.5 "/>
<text text-anchor="middle" x="326" y="-340.3" font-family="Times New Roman,serif" font-size="14.00">(None, 1024)</text>
</g>
<!-- 2102624670888&#45;&gt;2104998597968 -->
<g id="edge24" class="edge"><title>2102624670888&#45;&gt;2104998597968</title>
<path fill="none" stroke="black" d="M224,-415.366C224,-407.152 224,-397.658 224,-388.725"/>
<polygon fill="black" stroke="black" points="227.5,-388.607 224,-378.607 220.5,-388.607 227.5,-388.607"/>
</g>
<!-- 2104999677736 -->
<g id="node25" class="node"><title>2104999677736</title>
<polygon fill="none" stroke="black" points="21,-249.5 21,-295.5 427,-295.5 427,-249.5 21,-249.5"/>
<text text-anchor="middle" x="151" y="-268.8" font-family="Times New Roman,serif" font-size="14.00">batch_normalization_6: BatchNormalization</text>
<polyline fill="none" stroke="black" points="281,-249.5 281,-295.5 "/>
<text text-anchor="middle" x="309" y="-280.3" font-family="Times New Roman,serif" font-size="14.00">input:</text>
<polyline fill="none" stroke="black" points="281,-272.5 337,-272.5 "/>
<text text-anchor="middle" x="309" y="-257.3" font-family="Times New Roman,serif" font-size="14.00">output:</text>
<polyline fill="none" stroke="black" points="337,-249.5 337,-295.5 "/>
<text text-anchor="middle" x="382" y="-280.3" font-family="Times New Roman,serif" font-size="14.00">(None, 1024)</text>
<polyline fill="none" stroke="black" points="337,-272.5 427,-272.5 "/>
<text text-anchor="middle" x="382" y="-257.3" font-family="Times New Roman,serif" font-size="14.00">(None, 1024)</text>
</g>
<!-- 2104998597968&#45;&gt;2104999677736 -->
<g id="edge25" class="edge"><title>2104998597968&#45;&gt;2104999677736</title>
<path fill="none" stroke="black" d="M224,-332.366C224,-324.152 224,-314.658 224,-305.725"/>
<polygon fill="black" stroke="black" points="227.5,-305.607 224,-295.607 220.5,-305.607 227.5,-305.607"/>
</g>
<!-- 2104999677288 -->
<g id="node26" class="node"><title>2104999677288</title>
<polygon fill="none" stroke="black" points="86,-166.5 86,-212.5 362,-212.5 362,-166.5 86,-166.5"/>
<text text-anchor="middle" x="151" y="-185.8" font-family="Times New Roman,serif" font-size="14.00">dropout_4: Dropout</text>
<polyline fill="none" stroke="black" points="216,-166.5 216,-212.5 "/>
<text text-anchor="middle" x="244" y="-197.3" font-family="Times New Roman,serif" font-size="14.00">input:</text>
<polyline fill="none" stroke="black" points="216,-189.5 272,-189.5 "/>
<text text-anchor="middle" x="244" y="-174.3" font-family="Times New Roman,serif" font-size="14.00">output:</text>
<polyline fill="none" stroke="black" points="272,-166.5 272,-212.5 "/>
<text text-anchor="middle" x="317" y="-197.3" font-family="Times New Roman,serif" font-size="14.00">(None, 1024)</text>
<polyline fill="none" stroke="black" points="272,-189.5 362,-189.5 "/>
<text text-anchor="middle" x="317" y="-174.3" font-family="Times New Roman,serif" font-size="14.00">(None, 1024)</text>
</g>
<!-- 2104999677736&#45;&gt;2104999677288 -->
<g id="edge26" class="edge"><title>2104999677736&#45;&gt;2104999677288</title>
<path fill="none" stroke="black" d="M224,-249.366C224,-241.152 224,-231.658 224,-222.725"/>
<polygon fill="black" stroke="black" points="227.5,-222.607 224,-212.607 220.5,-222.607 227.5,-222.607"/>
</g>
<!-- 2104999677456 -->
<g id="node27" class="node"><title>2104999677456</title>
<polygon fill="none" stroke="black" points="99,-83.5 99,-129.5 349,-129.5 349,-83.5 99,-83.5"/>
<text text-anchor="middle" x="151" y="-102.8" font-family="Times New Roman,serif" font-size="14.00">dense_2: Dense</text>
<polyline fill="none" stroke="black" points="203,-83.5 203,-129.5 "/>
<text text-anchor="middle" x="231" y="-114.3" font-family="Times New Roman,serif" font-size="14.00">input:</text>
<polyline fill="none" stroke="black" points="203,-106.5 259,-106.5 "/>
<text text-anchor="middle" x="231" y="-91.3" font-family="Times New Roman,serif" font-size="14.00">output:</text>
<polyline fill="none" stroke="black" points="259,-83.5 259,-129.5 "/>
<text text-anchor="middle" x="304" y="-114.3" font-family="Times New Roman,serif" font-size="14.00">(None, 1024)</text>
<polyline fill="none" stroke="black" points="259,-106.5 349,-106.5 "/>
<text text-anchor="middle" x="304" y="-91.3" font-family="Times New Roman,serif" font-size="14.00">(None, 38)</text>
</g>
<!-- 2104999677288&#45;&gt;2104999677456 -->
<g id="edge27" class="edge"><title>2104999677288&#45;&gt;2104999677456</title>
<path fill="none" stroke="black" d="M224,-166.366C224,-158.152 224,-148.658 224,-139.725"/>
<polygon fill="black" stroke="black" points="227.5,-139.607 224,-129.607 220.5,-139.607 227.5,-139.607"/>
</g>
<!-- 2096125352088 -->
<g id="node28" class="node"><title>2096125352088</title>
<polygon fill="none" stroke="black" points="83.5,-0.5 83.5,-46.5 364.5,-46.5 364.5,-0.5 83.5,-0.5"/>
<text text-anchor="middle" x="157.5" y="-19.8" font-family="Times New Roman,serif" font-size="14.00">activation_7: Activation</text>
<polyline fill="none" stroke="black" points="231.5,-0.5 231.5,-46.5 "/>
<text text-anchor="middle" x="259.5" y="-31.3" font-family="Times New Roman,serif" font-size="14.00">input:</text>
<polyline fill="none" stroke="black" points="231.5,-23.5 287.5,-23.5 "/>
<text text-anchor="middle" x="259.5" y="-8.3" font-family="Times New Roman,serif" font-size="14.00">output:</text>
<polyline fill="none" stroke="black" points="287.5,-0.5 287.5,-46.5 "/>
<text text-anchor="middle" x="326" y="-31.3" font-family="Times New Roman,serif" font-size="14.00">(None, 38)</text>
<polyline fill="none" stroke="black" points="287.5,-23.5 364.5,-23.5 "/>
<text text-anchor="middle" x="326" y="-8.3" font-family="Times New Roman,serif" font-size="14.00">(None, 38)</text>
</g>
<!-- 2104999677456&#45;&gt;2096125352088 -->
<g id="edge28" class="edge"><title>2104999677456&#45;&gt;2096125352088</title>
<path fill="none" stroke="black" d="M224,-83.3664C224,-75.1516 224,-65.6579 224,-56.7252"/>
<polygon fill="black" stroke="black" points="227.5,-56.6068 224,-46.6068 220.5,-56.6069 227.5,-56.6068"/>
</g>
<!-- 2102619330544 -->
<g id="node29" class="node"><title>2102619330544</title>
<polygon fill="none" stroke="black" points="172,-2324.5 172,-2360.5 276,-2360.5 276,-2324.5 172,-2324.5"/>
<text text-anchor="middle" x="224" y="-2338.8" font-family="Times New Roman,serif" font-size="14.00">2102619330544</text>
</g>
<!-- 2102619330544&#45;&gt;2102619330152 -->
<g id="edge1" class="edge"><title>2102619330544&#45;&gt;2102619330152</title>
<path fill="none" stroke="black" d="M224,-2324.25C224,-2316.36 224,-2306.75 224,-2297.6"/>
<polygon fill="black" stroke="black" points="227.5,-2297.59 224,-2287.59 220.5,-2297.59 227.5,-2297.59"/>
</g>
</g>
</svg>
