<?xml version="1.0"?>
<svg xmlns="http://www.w3.org/2000/svg" id="Layer_1" data-name="Layer 1" viewBox="0 0 512 512" width="512" height="512"><title>Potatoe</title><circle cx="416" cy="247" r="21.97" style="fill:#edc469"/><path d="M416,268.97A21.97,21.97,0,1,0,394.03,247,21.975,21.975,0,0,0,416,268.97ZM339,372a24,24,0,1,0-24-24A24.006,24.006,0,0,0,339,372ZM320,150a15,15,0,1,0,15-15A15.005,15.005,0,0,0,320,150ZM256,85.15c122.19,0,221.24,64.01,221.24,161.87S377.34,409.89,256,424.22C85.14,444.39,34.76,344.88,34.76,247.02S133.81,85.15,256,85.15ZM264,258a19,19,0,1,0-19-19A19,19,0,0,0,264,258ZM174,376a23,23,0,1,0-23-23A23,23,0,0,0,174,376ZM116,213a26,26,0,1,0,26-26A26,26,0,0,0,116,213Z" style="fill:#f7d474"/><circle cx="339" cy="348" r="24" style="fill:#edc469"/><circle cx="335" cy="150" r="15" style="fill:#edc469"/><circle cx="264" cy="239" r="19" style="fill:#edc469"/><circle cx="174" cy="353" r="23" style="fill:#edc469"/><circle cx="142" cy="213" r="26" style="fill:#edc469"/><path d="M417.052,122.85C375.265,93.38,318.068,77.15,256,77.15S136.735,93.38,94.948,122.85C50.977,153.86,26.76,197.958,26.76,247.02c0,78.935,30.459,122.578,56.01,145.291,31.834,28.3,75.679,42.541,130.706,42.541a371.269,371.269,0,0,0,43.462-2.687c62.692-7.4,119.515-28.3,160-58.834,44.683-33.7,68.3-77.378,68.3-126.311C485.24,197.958,461.023,153.86,417.052,122.85Zm-9.746,237.707c-38.258,28.854-92.326,48.642-152.244,55.718-71.025,8.385-125.414-3.7-161.663-35.922C70.3,359.817,42.76,320.016,42.76,247.02c0-44.346,21.235-82.762,61.409-111.095C143.282,108.341,197.2,93.15,256,93.15s112.718,15.191,151.831,42.775c40.174,28.333,61.409,66.749,61.409,111.1C469.24,290.737,447.823,330,407.306,360.557Z" style="fill:#083863"/><path d="M176,213a34,34,0,1,0-34,34A34.038,34.038,0,0,0,176,213Zm-34,18a18,18,0,1,1,18-18A18.021,18.021,0,0,1,142,231Z" style="fill:#083863"/><path d="M174,322a31,31,0,1,0,31,31A31.035,31.035,0,0,0,174,322Zm0,46a15,15,0,1,1,15-15A15.017,15.017,0,0,1,174,368Z" style="fill:#083863"/><path d="M339,316a32,32,0,1,0,32,32A32.036,32.036,0,0,0,339,316Zm0,48a16,16,0,1,1,16-16A16.019,16.019,0,0,1,339,364Z" style="fill:#083863"/><path d="M264,212a27,27,0,1,0,27,27A27.03,27.03,0,0,0,264,212Zm0,38a11,11,0,1,1,11-11A11.013,11.013,0,0,1,264,250Z" style="fill:#083863"/><path d="M335,173a23,23,0,1,0-23-23A23.026,23.026,0,0,0,335,173Zm0-30a7,7,0,1,1-7,7A7.008,7.008,0,0,1,335,143Z" style="fill:#083863"/><path d="M386.03,247A29.97,29.97,0,1,0,416,217.03,30,30,0,0,0,386.03,247Zm43.94,0A13.97,13.97,0,1,1,416,233.03,13.986,13.986,0,0,1,429.97,247Z" style="fill:#083863"/></svg>
